<?xml version="1.0" standalone="no"?>
<!DOCTYPE svg PUBLIC "-//W3C//DTD SVG 20010904//EN"
 "http://www.w3.org/TR/2001/REC-SVG-20010904/DTD/svg10.dtd">
<svg version="1.0" xmlns="http://www.w3.org/2000/svg"
 width="1024.000000pt" height="1024.000000pt" viewBox="0 0 1024.000000 1024.000000"
 preserveAspectRatio="xMidYMid meet">
<metadata>
Created by potrace 1.11, written by Peter Selinger 2001-2013
</metadata>
<g transform="translate(0.000000,1024.000000) scale(0.100000,-0.100000)"
fill="#000000" stroke="none">
<path d="M6227 8295 c-1 -2 -69 -5 -152 -9 -82 -3 -161 -8 -175 -10 -14 -2
-57 -7 -96 -10 -39 -4 -80 -8 -90 -10 -11 -2 -46 -7 -79 -11 -32 -3 -62 -8
-65 -10 -3 -2 -34 -6 -70 -10 -36 -4 -67 -8 -70 -10 -3 -2 -25 -6 -50 -10 -25
-4 -48 -8 -51 -11 -4 -2 -24 -6 -45 -10 -150 -23 -560 -146 -751 -225 -54 -22
-102 -42 -108 -43 -37 -9 -280 -129 -414 -204 -151 -84 -346 -213 -485 -320
-61 -47 -113 -88 -116 -91 -3 -3 -32 -28 -65 -55 -94 -78 -373 -360 -470 -476
-415 -498 -719 -1108 -876 -1758 -33 -140 -74 -364 -84 -467 -4 -38 -9 -78
-11 -88 -26 -139 -25 -707 1 -832 3 -11 7 -36 9 -55 43 -303 172 -635 344
-885 87 -126 244 -294 347 -370 22 -16 42 -33 45 -36 3 -4 48 -33 100 -66 237
-148 498 -238 790 -271 85 -9 394 -9 490 1 593 59 1124 341 1563 828 152 168
321 403 437 607 27 47 40 61 58 62 13 0 21 -4 18 -8 -2 -4 -7 -39 -11 -77 -3
-39 -8 -86 -10 -105 -2 -19 -7 -62 -10 -95 -3 -33 -8 -80 -10 -105 -9 -93 -15
-147 -20 -212 -3 -37 -7 -75 -9 -85 -2 -10 -7 -61 -11 -113 -4 -52 -9 -108
-10 -125 -2 -16 -6 -75 -10 -130 -4 -55 -9 -120 -10 -145 -7 -87 -8 -161 -2
-166 4 -4 969 -7 1373 -4 l41 0 0 233 c1 212 7 417 18 587 3 36 7 110 10 165
3 55 8 111 10 125 2 14 6 66 10 115 4 50 8 104 10 120 2 17 7 59 10 95 4 36 8
76 10 90 2 14 6 57 10 95 4 39 9 77 10 85 2 8 6 44 10 80 4 36 8 72 10 80 1 8
6 44 11 80 4 36 8 67 9 70 1 3 5 32 9 65 5 33 10 69 12 80 10 50 14 74 18 106
11 83 60 356 91 508 19 91 36 177 39 191 2 14 14 70 26 125 11 55 23 113 26
129 3 16 6 32 8 35 2 3 7 22 10 41 3 19 23 122 46 228 22 107 42 203 44 215 6
35 75 362 102 491 14 65 28 130 30 145 2 14 11 58 20 96 9 39 18 80 20 93 9
49 14 75 58 282 24 118 47 226 49 240 3 14 8 36 11 50 3 14 8 36 10 50 2 14
12 61 21 105 9 44 19 91 21 105 3 14 9 41 14 60 5 19 11 46 14 60 2 14 21 106
41 205 51 247 53 226 -25 248 -80 22 -286 74 -320 81 -14 3 -92 18 -175 35
-82 16 -170 32 -195 36 -25 3 -52 8 -60 10 -8 2 -40 7 -70 10 -30 3 -62 8 -70
10 -8 3 -36 7 -61 9 -48 5 -118 13 -179 21 -19 3 -60 7 -90 10 -30 2 -80 7
-110 10 -141 13 -692 28 -703 20z m73 -1139 c25 -3 68 -8 95 -11 28 -3 89 -12
136 -21 l86 -16 -13 -62 c-7 -35 -15 -74 -18 -87 -3 -13 -8 -35 -11 -49 -3
-14 -8 -36 -11 -50 -2 -14 -18 -86 -34 -160 -16 -74 -91 -423 -166 -775 -75
-352 -137 -647 -139 -655 -29 -134 -160 -542 -205 -635 -5 -11 -20 -48 -34
-82 -175 -427 -472 -850 -776 -1104 -197 -164 -457 -295 -644 -325 -21 -3 -48
-8 -60 -10 -29 -6 -215 -5 -246 1 -13 2 -42 7 -63 10 -21 4 -69 15 -105 27
-207 63 -373 208 -475 413 -96 195 -142 426 -141 715 1 98 13 310 18 319 2 3
7 33 11 66 32 280 156 671 309 975 80 158 163 302 178 308 4 2 8 8 8 13 0 13
112 168 201 279 112 139 343 368 432 429 12 8 24 17 27 20 13 15 124 93 210
147 270 171 614 293 905 320 33 3 61 7 63 9 5 5 415 -2 462 -9z"/>
</g>
</svg>
